<svg class="world-map" xmlns="http://www.w3.org/2000/svg" viewBox="0 0 960 340" role="img" aria-labelledby="map-title map-desc">
  <title id="map-title">Vùng phủ proxy toàn cầu của HAV</title>
  <desc id="map-desc">Bản đồ chấm với tám điểm kết nối đại diện tại Hoa Kỳ, Brazil, châu Âu, châu Phi, Việt Nam, Singapore, Nhật Bản và Australia.</desc>
  <g class="land-dots">
    <circle class="land-dot" cx="334.4" cy="264.5" r="2.25"/>
    <circle class="land-dot" cx="324.0" cy="254.8" r="2.25"/>
    <circle class="land-dot" cx="334.0" cy="254.8" r="2.25"/>
    <circle class="land-dot" cx="323.7" cy="245.0" r="2.25"/>
    <circle class="land-dot" cx="334.1" cy="245.0" r="2.25"/>
    <circle class="land-dot" cx="802.0" cy="245.0" r="2.25"/>
    <circle class="land-dot" cx="864.4" cy="245.0" r="2.25"/>
    <circle class="land-dot" cx="325.2" cy="235.0" r="2.25"/>
    <circle class="land-dot" cx="335.9" cy="235.0" r="2.25"/>
    <circle class="land-dot" cx="346.5" cy="235.0" r="2.25"/>
    <circle class="land-dot" cx="805.6" cy="235.0" r="2.25"/>
    <circle class="land-dot" cx="816.3" cy="235.0" r="2.25"/>
    <circle class="land-dot" cx="316.2" cy="225.0" r="2.25"/>
    <circle class="land-dot" cx="327.1" cy="225.0" r="2.25"/>
    <circle class="land-dot" cx="338.0" cy="225.0" r="2.25"/>
    <circle class="land-dot" cx="348.9" cy="225.0" r="2.25"/>
    <circle class="land-dot" cx="359.8" cy="225.0" r="2.25"/>
    <circle class="land-dot" cx="523.3" cy="225.0" r="2.25"/>
    <circle class="land-dot" cx="534.2" cy="225.0" r="2.25"/>
    <circle class="land-dot" cx="545.1" cy="225.0" r="2.25"/>
    <circle class="land-dot" cx="752.1" cy="225.0" r="2.25"/>
    <circle class="land-dot" cx="763.0" cy="225.0" r="2.25"/>
    <circle class="land-dot" cx="773.9" cy="225.0" r="2.25"/>
    <circle class="land-dot" cx="784.8" cy="225.0" r="2.25"/>
    <circle class="land-dot" cx="795.7" cy="225.0" r="2.25"/>
    <circle class="land-dot" cx="806.6" cy="225.0" r="2.25"/>
    <circle class="land-dot" cx="817.5" cy="225.0" r="2.25"/>
    <circle class="land-dot" cx="828.4" cy="225.0" r="2.25"/>
    <circle class="land-dot" cx="319.6" cy="215.0" r="2.25"/>
    <circle class="land-dot" cx="330.6" cy="215.0" r="2.25"/>
    <circle class="land-dot" cx="341.7" cy="215.0" r="2.25"/>
    <circle class="land-dot" cx="352.8" cy="215.0" r="2.25"/>
    <circle class="land-dot" cx="363.8" cy="215.0" r="2.25"/>
    <circle class="land-dot" cx="518.7" cy="215.0" r="2.25"/>
    <circle class="land-dot" cx="529.8" cy="215.0" r="2.25"/>
    <circle class="land-dot" cx="540.9" cy="215.0" r="2.25"/>
    <circle class="land-dot" cx="551.9" cy="215.0" r="2.25"/>
    <circle class="land-dot" cx="585.1" cy="215.0" r="2.25"/>
    <circle class="land-dot" cx="751.1" cy="215.0" r="2.25"/>
    <circle class="land-dot" cx="762.1" cy="215.0" r="2.25"/>
    <circle class="land-dot" cx="773.2" cy="215.0" r="2.25"/>
    <circle class="land-dot" cx="784.3" cy="215.0" r="2.25"/>
    <circle class="land-dot" cx="795.3" cy="215.0" r="2.25"/>
    <circle class="land-dot" cx="806.4" cy="215.0" r="2.25"/>
    <circle class="land-dot" cx="817.5" cy="215.0" r="2.25"/>
    <circle class="land-dot" cx="828.5" cy="215.0" r="2.25"/>
    <circle class="land-dot" cx="323.2" cy="205.0" r="2.25"/>
    <circle class="land-dot" cx="334.3" cy="205.0" r="2.25"/>
    <circle class="land-dot" cx="345.5" cy="205.0" r="2.25"/>
    <circle class="land-dot" cx="356.7" cy="205.0" r="2.25"/>
    <circle class="land-dot" cx="367.9" cy="205.0" r="2.25"/>
    <circle class="land-dot" cx="379.0" cy="205.0" r="2.25"/>
    <circle class="land-dot" cx="513.2" cy="205.0" r="2.25"/>
    <circle class="land-dot" cx="524.4" cy="205.0" r="2.25"/>
    <circle class="land-dot" cx="535.5" cy="205.0" r="2.25"/>
    <circle class="land-dot" cx="546.7" cy="205.0" r="2.25"/>
    <circle class="land-dot" cx="557.9" cy="205.0" r="2.25"/>
    <circle class="land-dot" cx="591.4" cy="205.0" r="2.25"/>
    <circle class="land-dot" cx="770.3" cy="205.0" r="2.25"/>
    <circle class="land-dot" cx="781.5" cy="205.0" r="2.25"/>
    <circle class="land-dot" cx="792.6" cy="205.0" r="2.25"/>
    <circle class="land-dot" cx="803.8" cy="205.0" r="2.25"/>
    <circle class="land-dot" cx="815.0" cy="205.0" r="2.25"/>
    <circle class="land-dot" cx="826.2" cy="205.0" r="2.25"/>
    <circle class="land-dot" cx="305.3" cy="195.1" r="2.25"/>
    <circle class="land-dot" cx="316.6" cy="195.1" r="2.25"/>
    <circle class="land-dot" cx="327.8" cy="195.1" r="2.25"/>
    <circle class="land-dot" cx="339.1" cy="195.1" r="2.25"/>
    <circle class="land-dot" cx="350.4" cy="195.1" r="2.25"/>
    <circle class="land-dot" cx="361.6" cy="195.1" r="2.25"/>
    <circle class="land-dot" cx="372.9" cy="195.1" r="2.25"/>
    <circle class="land-dot" cx="384.2" cy="195.1" r="2.25"/>
    <circle class="land-dot" cx="519.5" cy="195.1" r="2.25"/>
    <circle class="land-dot" cx="530.7" cy="195.1" r="2.25"/>
    <circle class="land-dot" cx="542.0" cy="195.1" r="2.25"/>
    <circle class="land-dot" cx="553.3" cy="195.1" r="2.25"/>
    <circle class="land-dot" cx="564.5" cy="195.1" r="2.25"/>
    <circle class="land-dot" cx="575.8" cy="195.1" r="2.25"/>
    <circle class="land-dot" cx="598.4" cy="195.1" r="2.25"/>
    <circle class="land-dot" cx="801.2" cy="195.1" r="2.25"/>
    <circle class="land-dot" cx="823.8" cy="195.1" r="2.25"/>
    <circle class="land-dot" cx="298.4" cy="185.1" r="2.25"/>
    <circle class="land-dot" cx="309.7" cy="185.1" r="2.25"/>
    <circle class="land-dot" cx="321.0" cy="185.1" r="2.25"/>
    <circle class="land-dot" cx="332.3" cy="185.1" r="2.25"/>
    <circle class="land-dot" cx="343.7" cy="185.1" r="2.25"/>
    <circle class="land-dot" cx="355.0" cy="185.1" r="2.25"/>
    <circle class="land-dot" cx="366.3" cy="185.1" r="2.25"/>
    <circle class="land-dot" cx="377.7" cy="185.1" r="2.25"/>
    <circle class="land-dot" cx="389.0" cy="185.1" r="2.25"/>
    <circle class="land-dot" cx="513.6" cy="185.1" r="2.25"/>
    <circle class="land-dot" cx="525.0" cy="185.1" r="2.25"/>
    <circle class="land-dot" cx="536.3" cy="185.1" r="2.25"/>
    <circle class="land-dot" cx="547.6" cy="185.1" r="2.25"/>
    <circle class="land-dot" cx="559.0" cy="185.1" r="2.25"/>
    <circle class="land-dot" cx="570.3" cy="185.1" r="2.25"/>
    <circle class="land-dot" cx="751.6" cy="185.1" r="2.25"/>
    <circle class="land-dot" cx="819.6" cy="185.1" r="2.25"/>
    <circle class="land-dot" cx="292.5" cy="175.1" r="2.25"/>
    <circle class="land-dot" cx="303.9" cy="175.1" r="2.25"/>
    <circle class="land-dot" cx="315.2" cy="175.1" r="2.25"/>
    <circle class="land-dot" cx="326.6" cy="175.1" r="2.25"/>
    <circle class="land-dot" cx="338.0" cy="175.1" r="2.25"/>
    <circle class="land-dot" cx="349.3" cy="175.1" r="2.25"/>
    <circle class="land-dot" cx="360.7" cy="175.1" r="2.25"/>
    <circle class="land-dot" cx="508.4" cy="175.1" r="2.25"/>
    <circle class="land-dot" cx="519.8" cy="175.1" r="2.25"/>
    <circle class="land-dot" cx="531.1" cy="175.1" r="2.25"/>
    <circle class="land-dot" cx="542.5" cy="175.1" r="2.25"/>
    <circle class="land-dot" cx="553.9" cy="175.1" r="2.25"/>
    <circle class="land-dot" cx="565.2" cy="175.1" r="2.25"/>
    <circle class="land-dot" cx="576.6" cy="175.1" r="2.25"/>
    <circle class="land-dot" cx="735.7" cy="175.1" r="2.25"/>
    <circle class="land-dot" cx="747.0" cy="175.1" r="2.25"/>
    <circle class="land-dot" cx="758.4" cy="175.1" r="2.25"/>
    <circle class="land-dot" cx="769.7" cy="175.1" r="2.25"/>
    <circle class="land-dot" cx="792.5" cy="175.1" r="2.25"/>
    <circle class="land-dot" cx="803.8" cy="175.1" r="2.25"/>
    <circle class="land-dot" cx="815.2" cy="175.1" r="2.25"/>
    <circle class="land-dot" cx="297.8" cy="165.1" r="2.25"/>
    <circle class="land-dot" cx="309.2" cy="165.1" r="2.25"/>
    <circle class="land-dot" cx="320.6" cy="165.1" r="2.25"/>
    <circle class="land-dot" cx="331.9" cy="165.1" r="2.25"/>
    <circle class="land-dot" cx="343.3" cy="165.1" r="2.25"/>
    <circle class="land-dot" cx="354.7" cy="165.1" r="2.25"/>
    <circle class="land-dot" cx="513.7" cy="165.1" r="2.25"/>
    <circle class="land-dot" cx="525.1" cy="165.1" r="2.25"/>
    <circle class="land-dot" cx="536.5" cy="165.1" r="2.25"/>
    <circle class="land-dot" cx="547.8" cy="165.1" r="2.25"/>
    <circle class="land-dot" cx="559.2" cy="165.1" r="2.25"/>
    <circle class="land-dot" cx="570.5" cy="165.1" r="2.25"/>
    <circle class="land-dot" cx="581.9" cy="165.1" r="2.25"/>
    <circle class="land-dot" cx="718.3" cy="165.1" r="2.25"/>
    <circle class="land-dot" cx="729.6" cy="165.1" r="2.25"/>
    <circle class="land-dot" cx="752.4" cy="165.1" r="2.25"/>
    <circle class="land-dot" cx="763.7" cy="165.1" r="2.25"/>
    <circle class="land-dot" cx="293.0" cy="155.1" r="2.25"/>
    <circle class="land-dot" cx="304.4" cy="155.1" r="2.25"/>
    <circle class="land-dot" cx="315.7" cy="155.1" r="2.25"/>
    <circle class="land-dot" cx="327.0" cy="155.1" r="2.25"/>
    <circle class="land-dot" cx="451.7" cy="155.1" r="2.25"/>
    <circle class="land-dot" cx="463.0" cy="155.1" r="2.25"/>
    <circle class="land-dot" cx="474.3" cy="155.1" r="2.25"/>
    <circle class="land-dot" cx="485.7" cy="155.1" r="2.25"/>
    <circle class="land-dot" cx="497.0" cy="155.1" r="2.25"/>
    <circle class="land-dot" cx="508.3" cy="155.1" r="2.25"/>
    <circle class="land-dot" cx="519.7" cy="155.1" r="2.25"/>
    <circle class="land-dot" cx="531.0" cy="155.1" r="2.25"/>
    <circle class="land-dot" cx="542.3" cy="155.1" r="2.25"/>
    <circle class="land-dot" cx="553.7" cy="155.1" r="2.25"/>
    <circle class="land-dot" cx="565.0" cy="155.1" r="2.25"/>
    <circle class="land-dot" cx="576.3" cy="155.1" r="2.25"/>
    <circle class="land-dot" cx="587.6" cy="155.1" r="2.25"/>
    <circle class="land-dot" cx="599.0" cy="155.1" r="2.25"/>
    <circle class="land-dot" cx="667.0" cy="155.1" r="2.25"/>
    <circle class="land-dot" cx="780.3" cy="155.1" r="2.25"/>
    <circle class="land-dot" cx="265.5" cy="145.1" r="2.25"/>
    <circle class="land-dot" cx="276.7" cy="145.1" r="2.25"/>
    <circle class="land-dot" cx="445.8" cy="145.1" r="2.25"/>
    <circle class="land-dot" cx="457.1" cy="145.1" r="2.25"/>
    <circle class="land-dot" cx="468.4" cy="145.1" r="2.25"/>
    <circle class="land-dot" cx="479.6" cy="145.1" r="2.25"/>
    <circle class="land-dot" cx="490.9" cy="145.1" r="2.25"/>
    <circle class="land-dot" cx="502.2" cy="145.1" r="2.25"/>
    <circle class="land-dot" cx="513.5" cy="145.1" r="2.25"/>
    <circle class="land-dot" cx="524.7" cy="145.1" r="2.25"/>
    <circle class="land-dot" cx="536.0" cy="145.1" r="2.25"/>
    <circle class="land-dot" cx="547.3" cy="145.1" r="2.25"/>
    <circle class="land-dot" cx="558.6" cy="145.1" r="2.25"/>
    <circle class="land-dot" cx="569.8" cy="145.1" r="2.25"/>
    <circle class="land-dot" cx="592.4" cy="145.1" r="2.25"/>
    <circle class="land-dot" cx="660.0" cy="145.1" r="2.25"/>
    <circle class="land-dot" cx="671.3" cy="145.1" r="2.25"/>
    <circle class="land-dot" cx="716.4" cy="145.1" r="2.25"/>
    <circle class="land-dot" cx="727.6" cy="145.1" r="2.25"/>
    <circle class="land-dot" cx="738.9" cy="145.1" r="2.25"/>
    <circle class="land-dot" cx="239.6" cy="135.1" r="2.25"/>
    <circle class="land-dot" cx="250.8" cy="135.1" r="2.25"/>
    <circle class="land-dot" cx="306.7" cy="135.1" r="2.25"/>
    <circle class="land-dot" cx="440.9" cy="135.1" r="2.25"/>
    <circle class="land-dot" cx="452.1" cy="135.1" r="2.25"/>
    <circle class="land-dot" cx="463.2" cy="135.1" r="2.25"/>
    <circle class="land-dot" cx="474.4" cy="135.1" r="2.25"/>
    <circle class="land-dot" cx="485.6" cy="135.1" r="2.25"/>
    <circle class="land-dot" cx="496.8" cy="135.1" r="2.25"/>
    <circle class="land-dot" cx="507.9" cy="135.1" r="2.25"/>
    <circle class="land-dot" cx="519.1" cy="135.1" r="2.25"/>
    <circle class="land-dot" cx="530.3" cy="135.1" r="2.25"/>
    <circle class="land-dot" cx="541.5" cy="135.1" r="2.25"/>
    <circle class="land-dot" cx="552.7" cy="135.1" r="2.25"/>
    <circle class="land-dot" cx="563.8" cy="135.1" r="2.25"/>
    <circle class="land-dot" cx="586.2" cy="135.1" r="2.25"/>
    <circle class="land-dot" cx="597.4" cy="135.1" r="2.25"/>
    <circle class="land-dot" cx="608.6" cy="135.1" r="2.25"/>
    <circle class="land-dot" cx="664.5" cy="135.1" r="2.25"/>
    <circle class="land-dot" cx="675.6" cy="135.1" r="2.25"/>
    <circle class="land-dot" cx="709.2" cy="135.1" r="2.25"/>
    <circle class="land-dot" cx="720.4" cy="135.1" r="2.25"/>
    <circle class="land-dot" cx="731.5" cy="135.1" r="2.25"/>
    <circle class="land-dot" cx="742.7" cy="135.1" r="2.25"/>
    <circle class="land-dot" cx="236.2" cy="125.1" r="2.25"/>
    <circle class="land-dot" cx="247.3" cy="125.1" r="2.25"/>
    <circle class="land-dot" cx="446.5" cy="125.1" r="2.25"/>
    <circle class="land-dot" cx="457.5" cy="125.1" r="2.25"/>
    <circle class="land-dot" cx="468.6" cy="125.1" r="2.25"/>
    <circle class="land-dot" cx="479.7" cy="125.1" r="2.25"/>
    <circle class="land-dot" cx="490.7" cy="125.1" r="2.25"/>
    <circle class="land-dot" cx="501.8" cy="125.1" r="2.25"/>
    <circle class="land-dot" cx="512.9" cy="125.1" r="2.25"/>
    <circle class="land-dot" cx="523.9" cy="125.1" r="2.25"/>
    <circle class="land-dot" cx="535.0" cy="125.1" r="2.25"/>
    <circle class="land-dot" cx="546.1" cy="125.1" r="2.25"/>
    <circle class="land-dot" cx="557.1" cy="125.1" r="2.25"/>
    <circle class="land-dot" cx="568.2" cy="125.1" r="2.25"/>
    <circle class="land-dot" cx="579.2" cy="125.1" r="2.25"/>
    <circle class="land-dot" cx="590.3" cy="125.1" r="2.25"/>
    <circle class="land-dot" cx="612.4" cy="125.1" r="2.25"/>
    <circle class="land-dot" cx="645.6" cy="125.1" r="2.25"/>
    <circle class="land-dot" cx="656.7" cy="125.1" r="2.25"/>
    <circle class="land-dot" cx="667.8" cy="125.1" r="2.25"/>
    <circle class="land-dot" cx="678.8" cy="125.1" r="2.25"/>
    <circle class="land-dot" cx="689.9" cy="125.1" r="2.25"/>
    <circle class="land-dot" cx="701.0" cy="125.1" r="2.25"/>
    <circle class="land-dot" cx="712.0" cy="125.1" r="2.25"/>
    <circle class="land-dot" cx="723.1" cy="125.1" r="2.25"/>
    <circle class="land-dot" cx="734.2" cy="125.1" r="2.25"/>
    <circle class="land-dot" cx="745.2" cy="125.1" r="2.25"/>
    <circle class="land-dot" cx="756.3" cy="125.1" r="2.25"/>
    <circle class="land-dot" cx="767.4" cy="125.1" r="2.25"/>
    <circle class="land-dot" cx="212.9" cy="115.1" r="2.25"/>
    <circle class="land-dot" cx="223.8" cy="115.1" r="2.25"/>
    <circle class="land-dot" cx="234.7" cy="115.1" r="2.25"/>
    <circle class="land-dot" cx="245.6" cy="115.1" r="2.25"/>
    <circle class="land-dot" cx="256.5" cy="115.1" r="2.25"/>
    <circle class="land-dot" cx="267.4" cy="115.1" r="2.25"/>
    <circle class="land-dot" cx="289.2" cy="115.1" r="2.25"/>
    <circle class="land-dot" cx="463.6" cy="115.1" r="2.25"/>
    <circle class="land-dot" cx="474.5" cy="115.1" r="2.25"/>
    <circle class="land-dot" cx="485.5" cy="115.1" r="2.25"/>
    <circle class="land-dot" cx="496.4" cy="115.1" r="2.25"/>
    <circle class="land-dot" cx="507.3" cy="115.1" r="2.25"/>
    <circle class="land-dot" cx="518.2" cy="115.1" r="2.25"/>
    <circle class="land-dot" cx="529.1" cy="115.1" r="2.25"/>
    <circle class="land-dot" cx="540.0" cy="115.1" r="2.25"/>
    <circle class="land-dot" cx="550.9" cy="115.1" r="2.25"/>
    <circle class="land-dot" cx="561.8" cy="115.1" r="2.25"/>
    <circle class="land-dot" cx="572.7" cy="115.1" r="2.25"/>
    <circle class="land-dot" cx="583.6" cy="115.1" r="2.25"/>
    <circle class="land-dot" cx="594.5" cy="115.1" r="2.25"/>
    <circle class="land-dot" cx="605.4" cy="115.1" r="2.25"/>
    <circle class="land-dot" cx="616.3" cy="115.1" r="2.25"/>
    <circle class="land-dot" cx="627.2" cy="115.1" r="2.25"/>
    <circle class="land-dot" cx="638.1" cy="115.1" r="2.25"/>
    <circle class="land-dot" cx="649.0" cy="115.1" r="2.25"/>
    <circle class="land-dot" cx="659.9" cy="115.1" r="2.25"/>
    <circle class="land-dot" cx="670.8" cy="115.1" r="2.25"/>
    <circle class="land-dot" cx="681.7" cy="115.1" r="2.25"/>
    <circle class="land-dot" cx="692.6" cy="115.1" r="2.25"/>
    <circle class="land-dot" cx="703.5" cy="115.1" r="2.25"/>
    <circle class="land-dot" cx="714.4" cy="115.1" r="2.25"/>
    <circle class="land-dot" cx="725.3" cy="115.1" r="2.25"/>
    <circle class="land-dot" cx="736.2" cy="115.1" r="2.25"/>
    <circle class="land-dot" cx="758.0" cy="115.1" r="2.25"/>
    <circle class="land-dot" cx="212.7" cy="105.1" r="2.25"/>
    <circle class="land-dot" cx="223.4" cy="105.1" r="2.25"/>
    <circle class="land-dot" cx="234.0" cy="105.1" r="2.25"/>
    <circle class="land-dot" cx="244.7" cy="105.1" r="2.25"/>
    <circle class="land-dot" cx="255.4" cy="105.1" r="2.25"/>
    <circle class="land-dot" cx="266.1" cy="105.1" r="2.25"/>
    <circle class="land-dot" cx="276.8" cy="105.1" r="2.25"/>
    <circle class="land-dot" cx="287.4" cy="105.1" r="2.25"/>
    <circle class="land-dot" cx="298.1" cy="105.1" r="2.25"/>
    <circle class="land-dot" cx="490.3" cy="105.1" r="2.25"/>
    <circle class="land-dot" cx="501.0" cy="105.1" r="2.25"/>
    <circle class="land-dot" cx="565.1" cy="105.1" r="2.25"/>
    <circle class="land-dot" cx="575.8" cy="105.1" r="2.25"/>
    <circle class="land-dot" cx="586.5" cy="105.1" r="2.25"/>
    <circle class="land-dot" cx="597.1" cy="105.1" r="2.25"/>
    <circle class="land-dot" cx="607.8" cy="105.1" r="2.25"/>
    <circle class="land-dot" cx="618.5" cy="105.1" r="2.25"/>
    <circle class="land-dot" cx="629.2" cy="105.1" r="2.25"/>
    <circle class="land-dot" cx="639.9" cy="105.1" r="2.25"/>
    <circle class="land-dot" cx="650.5" cy="105.1" r="2.25"/>
    <circle class="land-dot" cx="661.2" cy="105.1" r="2.25"/>
    <circle class="land-dot" cx="671.9" cy="105.1" r="2.25"/>
    <circle class="land-dot" cx="682.6" cy="105.1" r="2.25"/>
    <circle class="land-dot" cx="693.3" cy="105.1" r="2.25"/>
    <circle class="land-dot" cx="703.9" cy="105.1" r="2.25"/>
    <circle class="land-dot" cx="714.6" cy="105.1" r="2.25"/>
    <circle class="land-dot" cx="725.3" cy="105.1" r="2.25"/>
    <circle class="land-dot" cx="736.0" cy="105.1" r="2.25"/>
    <circle class="land-dot" cx="746.7" cy="105.1" r="2.25"/>
    <circle class="land-dot" cx="800.1" cy="105.1" r="2.25"/>
    <circle class="land-dot" cx="214.7" cy="95.2" r="2.25"/>
    <circle class="land-dot" cx="225.1" cy="95.2" r="2.25"/>
    <circle class="land-dot" cx="235.5" cy="95.2" r="2.25"/>
    <circle class="land-dot" cx="245.9" cy="95.2" r="2.25"/>
    <circle class="land-dot" cx="256.3" cy="95.2" r="2.25"/>
    <circle class="land-dot" cx="266.7" cy="95.2" r="2.25"/>
    <circle class="land-dot" cx="277.1" cy="95.2" r="2.25"/>
    <circle class="land-dot" cx="287.6" cy="95.2" r="2.25"/>
    <circle class="land-dot" cx="298.0" cy="95.2" r="2.25"/>
    <circle class="land-dot" cx="308.4" cy="95.2" r="2.25"/>
    <circle class="land-dot" cx="318.8" cy="95.2" r="2.25"/>
    <circle class="land-dot" cx="464.4" cy="95.2" r="2.25"/>
    <circle class="land-dot" cx="474.8" cy="95.2" r="2.25"/>
    <circle class="land-dot" cx="526.8" cy="95.2" r="2.25"/>
    <circle class="land-dot" cx="537.2" cy="95.2" r="2.25"/>
    <circle class="land-dot" cx="558.0" cy="95.2" r="2.25"/>
    <circle class="land-dot" cx="578.8" cy="95.2" r="2.25"/>
    <circle class="land-dot" cx="610.0" cy="95.2" r="2.25"/>
    <circle class="land-dot" cx="620.4" cy="95.2" r="2.25"/>
    <circle class="land-dot" cx="630.8" cy="95.2" r="2.25"/>
    <circle class="land-dot" cx="641.2" cy="95.2" r="2.25"/>
    <circle class="land-dot" cx="651.6" cy="95.2" r="2.25"/>
    <circle class="land-dot" cx="662.0" cy="95.2" r="2.25"/>
    <circle class="land-dot" cx="672.4" cy="95.2" r="2.25"/>
    <circle class="land-dot" cx="682.9" cy="95.2" r="2.25"/>
    <circle class="land-dot" cx="693.3" cy="95.2" r="2.25"/>
    <circle class="land-dot" cx="703.7" cy="95.2" r="2.25"/>
    <circle class="land-dot" cx="714.1" cy="95.2" r="2.25"/>
    <circle class="land-dot" cx="724.5" cy="95.2" r="2.25"/>
    <circle class="land-dot" cx="734.9" cy="95.2" r="2.25"/>
    <circle class="land-dot" cx="745.3" cy="95.2" r="2.25"/>
    <circle class="land-dot" cx="755.7" cy="95.2" r="2.25"/>
    <circle class="land-dot" cx="766.1" cy="95.2" r="2.25"/>
    <circle class="land-dot" cx="217.8" cy="85.3" r="2.25"/>
    <circle class="land-dot" cx="227.9" cy="85.3" r="2.25"/>
    <circle class="land-dot" cx="238.0" cy="85.3" r="2.25"/>
    <circle class="land-dot" cx="248.0" cy="85.3" r="2.25"/>
    <circle class="land-dot" cx="258.1" cy="85.3" r="2.25"/>
    <circle class="land-dot" cx="268.2" cy="85.3" r="2.25"/>
    <circle class="land-dot" cx="278.2" cy="85.3" r="2.25"/>
    <circle class="land-dot" cx="288.3" cy="85.3" r="2.25"/>
    <circle class="land-dot" cx="308.5" cy="85.3" r="2.25"/>
    <circle class="land-dot" cx="318.5" cy="85.3" r="2.25"/>
    <circle class="land-dot" cx="328.6" cy="85.3" r="2.25"/>
    <circle class="land-dot" cx="338.7" cy="85.3" r="2.25"/>
    <circle class="land-dot" cx="479.7" cy="85.3" r="2.25"/>
    <circle class="land-dot" cx="489.8" cy="85.3" r="2.25"/>
    <circle class="land-dot" cx="499.8" cy="85.3" r="2.25"/>
    <circle class="land-dot" cx="509.9" cy="85.3" r="2.25"/>
    <circle class="land-dot" cx="520.0" cy="85.3" r="2.25"/>
    <circle class="land-dot" cx="530.0" cy="85.3" r="2.25"/>
    <circle class="land-dot" cx="540.1" cy="85.3" r="2.25"/>
    <circle class="land-dot" cx="550.2" cy="85.3" r="2.25"/>
    <circle class="land-dot" cx="570.3" cy="85.3" r="2.25"/>
    <circle class="land-dot" cx="580.4" cy="85.3" r="2.25"/>
    <circle class="land-dot" cx="600.5" cy="85.3" r="2.25"/>
    <circle class="land-dot" cx="610.6" cy="85.3" r="2.25"/>
    <circle class="land-dot" cx="620.7" cy="85.3" r="2.25"/>
    <circle class="land-dot" cx="630.8" cy="85.3" r="2.25"/>
    <circle class="land-dot" cx="640.8" cy="85.3" r="2.25"/>
    <circle class="land-dot" cx="650.9" cy="85.3" r="2.25"/>
    <circle class="land-dot" cx="661.0" cy="85.3" r="2.25"/>
    <circle class="land-dot" cx="671.1" cy="85.3" r="2.25"/>
    <circle class="land-dot" cx="681.1" cy="85.3" r="2.25"/>
    <circle class="land-dot" cx="691.2" cy="85.3" r="2.25"/>
    <circle class="land-dot" cx="701.3" cy="85.3" r="2.25"/>
    <circle class="land-dot" cx="711.3" cy="85.3" r="2.25"/>
    <circle class="land-dot" cx="721.4" cy="85.3" r="2.25"/>
    <circle class="land-dot" cx="731.5" cy="85.3" r="2.25"/>
    <circle class="land-dot" cx="741.6" cy="85.3" r="2.25"/>
    <circle class="land-dot" cx="751.6" cy="85.3" r="2.25"/>
    <circle class="land-dot" cx="761.7" cy="85.3" r="2.25"/>
    <circle class="land-dot" cx="771.8" cy="85.3" r="2.25"/>
    <circle class="land-dot" cx="223.1" cy="75.6" r="2.25"/>
    <circle class="land-dot" cx="232.8" cy="75.6" r="2.25"/>
    <circle class="land-dot" cx="242.5" cy="75.6" r="2.25"/>
    <circle class="land-dot" cx="252.2" cy="75.6" r="2.25"/>
    <circle class="land-dot" cx="261.9" cy="75.6" r="2.25"/>
    <circle class="land-dot" cx="271.6" cy="75.6" r="2.25"/>
    <circle class="land-dot" cx="281.3" cy="75.6" r="2.25"/>
    <circle class="land-dot" cx="291.0" cy="75.6" r="2.25"/>
    <circle class="land-dot" cx="300.7" cy="75.6" r="2.25"/>
    <circle class="land-dot" cx="310.4" cy="75.6" r="2.25"/>
    <circle class="land-dot" cx="320.1" cy="75.6" r="2.25"/>
    <circle class="land-dot" cx="329.8" cy="75.6" r="2.25"/>
    <circle class="land-dot" cx="339.4" cy="75.6" r="2.25"/>
    <circle class="land-dot" cx="349.1" cy="75.6" r="2.25"/>
    <circle class="land-dot" cx="358.8" cy="75.6" r="2.25"/>
    <circle class="land-dot" cx="465.5" cy="75.6" r="2.25"/>
    <circle class="land-dot" cx="475.2" cy="75.6" r="2.25"/>
    <circle class="land-dot" cx="494.5" cy="75.6" r="2.25"/>
    <circle class="land-dot" cx="504.2" cy="75.6" r="2.25"/>
    <circle class="land-dot" cx="513.9" cy="75.6" r="2.25"/>
    <circle class="land-dot" cx="523.6" cy="75.6" r="2.25"/>
    <circle class="land-dot" cx="533.3" cy="75.6" r="2.25"/>
    <circle class="land-dot" cx="543.0" cy="75.6" r="2.25"/>
    <circle class="land-dot" cx="552.7" cy="75.6" r="2.25"/>
    <circle class="land-dot" cx="562.4" cy="75.6" r="2.25"/>
    <circle class="land-dot" cx="572.1" cy="75.6" r="2.25"/>
    <circle class="land-dot" cx="581.8" cy="75.6" r="2.25"/>
    <circle class="land-dot" cx="591.5" cy="75.6" r="2.25"/>
    <circle class="land-dot" cx="601.2" cy="75.6" r="2.25"/>
    <circle class="land-dot" cx="610.9" cy="75.6" r="2.25"/>
    <circle class="land-dot" cx="620.6" cy="75.6" r="2.25"/>
    <circle class="land-dot" cx="630.2" cy="75.6" r="2.25"/>
    <circle class="land-dot" cx="639.9" cy="75.6" r="2.25"/>
    <circle class="land-dot" cx="649.6" cy="75.6" r="2.25"/>
    <circle class="land-dot" cx="659.3" cy="75.6" r="2.25"/>
    <circle class="land-dot" cx="669.0" cy="75.6" r="2.25"/>
    <circle class="land-dot" cx="678.7" cy="75.6" r="2.25"/>
    <circle class="land-dot" cx="688.4" cy="75.6" r="2.25"/>
    <circle class="land-dot" cx="698.1" cy="75.6" r="2.25"/>
    <circle class="land-dot" cx="707.8" cy="75.6" r="2.25"/>
    <circle class="land-dot" cx="717.5" cy="75.6" r="2.25"/>
    <circle class="land-dot" cx="727.2" cy="75.6" r="2.25"/>
    <circle class="land-dot" cx="736.9" cy="75.6" r="2.25"/>
    <circle class="land-dot" cx="746.6" cy="75.6" r="2.25"/>
    <circle class="land-dot" cx="756.3" cy="75.6" r="2.25"/>
    <circle class="land-dot" cx="766.0" cy="75.6" r="2.25"/>
    <circle class="land-dot" cx="804.7" cy="75.6" r="2.25"/>
    <circle class="land-dot" cx="220.6" cy="66.2" r="2.25"/>
    <circle class="land-dot" cx="229.8" cy="66.2" r="2.25"/>
    <circle class="land-dot" cx="239.1" cy="66.2" r="2.25"/>
    <circle class="land-dot" cx="248.3" cy="66.2" r="2.25"/>
    <circle class="land-dot" cx="257.6" cy="66.2" r="2.25"/>
    <circle class="land-dot" cx="266.9" cy="66.2" r="2.25"/>
    <circle class="land-dot" cx="276.1" cy="66.2" r="2.25"/>
    <circle class="land-dot" cx="285.4" cy="66.2" r="2.25"/>
    <circle class="land-dot" cx="294.6" cy="66.2" r="2.25"/>
    <circle class="land-dot" cx="331.6" cy="66.2" r="2.25"/>
    <circle class="land-dot" cx="340.9" cy="66.2" r="2.25"/>
    <circle class="land-dot" cx="350.1" cy="66.2" r="2.25"/>
    <circle class="land-dot" cx="470.5" cy="66.2" r="2.25"/>
    <circle class="land-dot" cx="507.5" cy="66.2" r="2.25"/>
    <circle class="land-dot" cx="535.2" cy="66.2" r="2.25"/>
    <circle class="land-dot" cx="544.5" cy="66.2" r="2.25"/>
    <circle class="land-dot" cx="553.7" cy="66.2" r="2.25"/>
    <circle class="land-dot" cx="563.0" cy="66.2" r="2.25"/>
    <circle class="land-dot" cx="572.3" cy="66.2" r="2.25"/>
    <circle class="land-dot" cx="581.5" cy="66.2" r="2.25"/>
    <circle class="land-dot" cx="590.8" cy="66.2" r="2.25"/>
    <circle class="land-dot" cx="600.0" cy="66.2" r="2.25"/>
    <circle class="land-dot" cx="609.3" cy="66.2" r="2.25"/>
    <circle class="land-dot" cx="618.5" cy="66.2" r="2.25"/>
    <circle class="land-dot" cx="627.8" cy="66.2" r="2.25"/>
    <circle class="land-dot" cx="637.0" cy="66.2" r="2.25"/>
    <circle class="land-dot" cx="646.3" cy="66.2" r="2.25"/>
    <circle class="land-dot" cx="655.6" cy="66.2" r="2.25"/>
    <circle class="land-dot" cx="664.8" cy="66.2" r="2.25"/>
    <circle class="land-dot" cx="674.1" cy="66.2" r="2.25"/>
    <circle class="land-dot" cx="683.3" cy="66.2" r="2.25"/>
    <circle class="land-dot" cx="692.6" cy="66.2" r="2.25"/>
    <circle class="land-dot" cx="701.8" cy="66.2" r="2.25"/>
    <circle class="land-dot" cx="711.1" cy="66.2" r="2.25"/>
    <circle class="land-dot" cx="720.3" cy="66.2" r="2.25"/>
    <circle class="land-dot" cx="729.6" cy="66.2" r="2.25"/>
    <circle class="land-dot" cx="738.8" cy="66.2" r="2.25"/>
    <circle class="land-dot" cx="748.1" cy="66.2" r="2.25"/>
    <circle class="land-dot" cx="794.4" cy="66.2" r="2.25"/>
    <circle class="land-dot" cx="177.2" cy="57.1" r="2.25"/>
    <circle class="land-dot" cx="186.0" cy="57.1" r="2.25"/>
    <circle class="land-dot" cx="194.7" cy="57.1" r="2.25"/>
    <circle class="land-dot" cx="203.5" cy="57.1" r="2.25"/>
    <circle class="land-dot" cx="212.3" cy="57.1" r="2.25"/>
    <circle class="land-dot" cx="221.1" cy="57.1" r="2.25"/>
    <circle class="land-dot" cx="229.9" cy="57.1" r="2.25"/>
    <circle class="land-dot" cx="238.6" cy="57.1" r="2.25"/>
    <circle class="land-dot" cx="247.4" cy="57.1" r="2.25"/>
    <circle class="land-dot" cx="256.2" cy="57.1" r="2.25"/>
    <circle class="land-dot" cx="265.0" cy="57.1" r="2.25"/>
    <circle class="land-dot" cx="273.7" cy="57.1" r="2.25"/>
    <circle class="land-dot" cx="282.5" cy="57.1" r="2.25"/>
    <circle class="land-dot" cx="291.3" cy="57.1" r="2.25"/>
    <circle class="land-dot" cx="300.1" cy="57.1" r="2.25"/>
    <circle class="land-dot" cx="308.8" cy="57.1" r="2.25"/>
    <circle class="land-dot" cx="387.8" cy="57.1" r="2.25"/>
    <circle class="land-dot" cx="396.6" cy="57.1" r="2.25"/>
    <circle class="land-dot" cx="501.9" cy="57.1" r="2.25"/>
    <circle class="land-dot" cx="510.7" cy="57.1" r="2.25"/>
    <circle class="land-dot" cx="528.3" cy="57.1" r="2.25"/>
    <circle class="land-dot" cx="537.1" cy="57.1" r="2.25"/>
    <circle class="land-dot" cx="545.8" cy="57.1" r="2.25"/>
    <circle class="land-dot" cx="554.6" cy="57.1" r="2.25"/>
    <circle class="land-dot" cx="563.4" cy="57.1" r="2.25"/>
    <circle class="land-dot" cx="572.2" cy="57.1" r="2.25"/>
    <circle class="land-dot" cx="580.9" cy="57.1" r="2.25"/>
    <circle class="land-dot" cx="589.7" cy="57.1" r="2.25"/>
    <circle class="land-dot" cx="598.5" cy="57.1" r="2.25"/>
    <circle class="land-dot" cx="607.3" cy="57.1" r="2.25"/>
    <circle class="land-dot" cx="616.0" cy="57.1" r="2.25"/>
    <circle class="land-dot" cx="624.8" cy="57.1" r="2.25"/>
    <circle class="land-dot" cx="633.6" cy="57.1" r="2.25"/>
    <circle class="land-dot" cx="642.4" cy="57.1" r="2.25"/>
    <circle class="land-dot" cx="651.2" cy="57.1" r="2.25"/>
    <circle class="land-dot" cx="659.9" cy="57.1" r="2.25"/>
    <circle class="land-dot" cx="668.7" cy="57.1" r="2.25"/>
    <circle class="land-dot" cx="677.5" cy="57.1" r="2.25"/>
    <circle class="land-dot" cx="686.3" cy="57.1" r="2.25"/>
    <circle class="land-dot" cx="695.0" cy="57.1" r="2.25"/>
    <circle class="land-dot" cx="703.8" cy="57.1" r="2.25"/>
    <circle class="land-dot" cx="712.6" cy="57.1" r="2.25"/>
    <circle class="land-dot" cx="730.1" cy="57.1" r="2.25"/>
    <circle class="land-dot" cx="738.9" cy="57.1" r="2.25"/>
    <circle class="land-dot" cx="747.7" cy="57.1" r="2.25"/>
    <circle class="land-dot" cx="756.5" cy="57.1" r="2.25"/>
    <circle class="land-dot" cx="765.3" cy="57.1" r="2.25"/>
    <circle class="land-dot" cx="774.0" cy="57.1" r="2.25"/>
    <circle class="land-dot" cx="782.8" cy="57.1" r="2.25"/>
    <circle class="land-dot" cx="791.6" cy="57.1" r="2.25"/>
    <circle class="land-dot" cx="800.4" cy="57.1" r="2.25"/>
    <circle class="land-dot" cx="809.1" cy="57.1" r="2.25"/>
    <circle class="land-dot" cx="190.3" cy="48.4" r="2.25"/>
    <circle class="land-dot" cx="198.6" cy="48.4" r="2.25"/>
    <circle class="land-dot" cx="206.9" cy="48.4" r="2.25"/>
    <circle class="land-dot" cx="215.1" cy="48.4" r="2.25"/>
    <circle class="land-dot" cx="223.4" cy="48.4" r="2.25"/>
    <circle class="land-dot" cx="231.7" cy="48.4" r="2.25"/>
    <circle class="land-dot" cx="248.2" cy="48.4" r="2.25"/>
    <circle class="land-dot" cx="256.5" cy="48.4" r="2.25"/>
    <circle class="land-dot" cx="264.7" cy="48.4" r="2.25"/>
    <circle class="land-dot" cx="281.3" cy="48.4" r="2.25"/>
    <circle class="land-dot" cx="297.8" cy="48.4" r="2.25"/>
    <circle class="land-dot" cx="306.1" cy="48.4" r="2.25"/>
    <circle class="land-dot" cx="314.4" cy="48.4" r="2.25"/>
    <circle class="land-dot" cx="322.6" cy="48.4" r="2.25"/>
    <circle class="land-dot" cx="330.9" cy="48.4" r="2.25"/>
    <circle class="land-dot" cx="347.4" cy="48.4" r="2.25"/>
    <circle class="land-dot" cx="355.7" cy="48.4" r="2.25"/>
    <circle class="land-dot" cx="397.1" cy="48.4" r="2.25"/>
    <circle class="land-dot" cx="405.3" cy="48.4" r="2.25"/>
    <circle class="land-dot" cx="413.6" cy="48.4" r="2.25"/>
    <circle class="land-dot" cx="421.9" cy="48.4" r="2.25"/>
    <circle class="land-dot" cx="430.1" cy="48.4" r="2.25"/>
    <circle class="land-dot" cx="512.8" cy="48.4" r="2.25"/>
    <circle class="land-dot" cx="521.1" cy="48.4" r="2.25"/>
    <circle class="land-dot" cx="529.4" cy="48.4" r="2.25"/>
    <circle class="land-dot" cx="537.6" cy="48.4" r="2.25"/>
    <circle class="land-dot" cx="595.5" cy="48.4" r="2.25"/>
    <circle class="land-dot" cx="603.8" cy="48.4" r="2.25"/>
    <circle class="land-dot" cx="620.3" cy="48.4" r="2.25"/>
    <circle class="land-dot" cx="628.6" cy="48.4" r="2.25"/>
    <circle class="land-dot" cx="636.9" cy="48.4" r="2.25"/>
    <circle class="land-dot" cx="645.1" cy="48.4" r="2.25"/>
    <circle class="land-dot" cx="653.4" cy="48.4" r="2.25"/>
    <circle class="land-dot" cx="661.7" cy="48.4" r="2.25"/>
    <circle class="land-dot" cx="669.9" cy="48.4" r="2.25"/>
    <circle class="land-dot" cx="678.2" cy="48.4" r="2.25"/>
    <circle class="land-dot" cx="686.5" cy="48.4" r="2.25"/>
    <circle class="land-dot" cx="694.7" cy="48.4" r="2.25"/>
    <circle class="land-dot" cx="703.0" cy="48.4" r="2.25"/>
    <circle class="land-dot" cx="711.3" cy="48.4" r="2.25"/>
    <circle class="land-dot" cx="719.5" cy="48.4" r="2.25"/>
    <circle class="land-dot" cx="727.8" cy="48.4" r="2.25"/>
    <circle class="land-dot" cx="736.1" cy="48.4" r="2.25"/>
    <circle class="land-dot" cx="744.4" cy="48.4" r="2.25"/>
    <circle class="land-dot" cx="752.6" cy="48.4" r="2.25"/>
    <circle class="land-dot" cx="760.9" cy="48.4" r="2.25"/>
    <circle class="land-dot" cx="769.2" cy="48.4" r="2.25"/>
    <circle class="land-dot" cx="777.4" cy="48.4" r="2.25"/>
    <circle class="land-dot" cx="785.7" cy="48.4" r="2.25"/>
    <circle class="land-dot" cx="794.0" cy="48.4" r="2.25"/>
    <circle class="land-dot" cx="337.3" cy="40.3" r="2.25"/>
    <circle class="land-dot" cx="391.3" cy="40.3" r="2.25"/>
    <circle class="land-dot" cx="399.0" cy="40.3" r="2.25"/>
    <circle class="land-dot" cx="406.7" cy="40.3" r="2.25"/>
    <circle class="land-dot" cx="414.5" cy="40.3" r="2.25"/>
    <circle class="land-dot" cx="422.2" cy="40.3" r="2.25"/>
    <circle class="land-dot" cx="429.9" cy="40.3" r="2.25"/>
    <circle class="land-dot" cx="437.6" cy="40.3" r="2.25"/>
    <circle class="land-dot" cx="445.3" cy="40.3" r="2.25"/>
    <circle class="land-dot" cx="622.7" cy="40.3" r="2.25"/>
    <circle class="land-dot" cx="630.4" cy="40.3" r="2.25"/>
    <circle class="land-dot" cx="638.1" cy="40.3" r="2.25"/>
    <circle class="land-dot" cx="645.8" cy="40.3" r="2.25"/>
    <circle class="land-dot" cx="653.5" cy="40.3" r="2.25"/>
    <circle class="land-dot" cx="661.2" cy="40.3" r="2.25"/>
    <circle class="land-dot" cx="338.5" cy="32.8" r="2.25"/>
    <circle class="land-dot" cx="345.6" cy="32.8" r="2.25"/>
    <circle class="land-dot" cx="352.6" cy="32.8" r="2.25"/>
    <circle class="land-dot" cx="359.7" cy="32.8" r="2.25"/>
    <circle class="land-dot" cx="366.8" cy="32.8" r="2.25"/>
    <circle class="land-dot" cx="388.0" cy="32.8" r="2.25"/>
    <circle class="land-dot" cx="395.0" cy="32.8" r="2.25"/>
    <circle class="land-dot" cx="402.1" cy="32.8" r="2.25"/>
    <circle class="land-dot" cx="409.1" cy="32.8" r="2.25"/>
    <circle class="land-dot" cx="416.2" cy="32.8" r="2.25"/>
    <circle class="land-dot" cx="423.3" cy="32.8" r="2.25"/>
    <circle class="land-dot" cx="430.3" cy="32.8" r="2.25"/>
    <circle class="land-dot" cx="437.4" cy="32.8" r="2.25"/>
    <circle class="land-dot" cx="444.5" cy="32.8" r="2.25"/>
    <circle class="land-dot" cx="508.0" cy="32.8" r="2.25"/>
    <circle class="land-dot" cx="515.1" cy="32.8" r="2.25"/>
  </g>
  <g class="map-nodes">
    <g class="map-node" transform="translate(254.6 101.2)">
      <circle class="map-ring" r="7.5" style="animation-delay:0.00s"/>
      <circle class="map-ring map-ring--late" r="7.5" style="animation-delay:1.30s"/>
      <circle class="map-core" r="5"/>
      <circle class="map-core-dot" r="2"/>
      <text class="map-label" x="12" y="-9" text-anchor="start">US</text>
    </g>
    <g class="map-node" transform="translate(354.6 188.1)">
      <circle class="map-ring" r="7.5" style="animation-delay:0.18s"/>
      <circle class="map-ring map-ring--late" r="7.5" style="animation-delay:1.48s"/>
      <circle class="map-core" r="5"/>
      <circle class="map-core-dot" r="2"/>
      <text class="map-label" x="12" y="18" text-anchor="start">Brazil</text>
    </g>
    <g class="map-node" transform="translate(501.0 79.8)">
      <circle class="map-ring" r="7.5" style="animation-delay:0.36s"/>
      <circle class="map-ring map-ring--late" r="7.5" style="animation-delay:1.66s"/>
      <circle class="map-core" r="5"/>
      <circle class="map-core-dot" r="2"/>
      <text class="map-label" x="12" y="-9" text-anchor="start">EU</text>
    </g>
    <g class="map-node" transform="translate(528.4 168.2)">
      <circle class="map-ring" r="7.5" style="animation-delay:0.54s"/>
      <circle class="map-ring map-ring--late" r="7.5" style="animation-delay:1.84s"/>
      <circle class="map-core" r="5"/>
      <circle class="map-core-dot" r="2"/>
      <text class="map-label" x="12" y="18" text-anchor="start">Africa</text>
    </g>
    <g class="map-node" transform="translate(733.8 141.0)">
      <circle class="map-ring" r="7.5" style="animation-delay:0.72s"/>
      <circle class="map-ring map-ring--late" r="7.5" style="animation-delay:2.02s"/>
      <circle class="map-core" r="5"/>
      <circle class="map-core-dot" r="2"/>
      <text class="map-label" x="-12" y="-11" text-anchor="end">VN</text>
    </g>
    <g class="map-node" transform="translate(731.4 167.6)">
      <circle class="map-ring" r="7.5" style="animation-delay:0.90s"/>
      <circle class="map-ring map-ring--late" r="7.5" style="animation-delay:2.20s"/>
      <circle class="map-core" r="5"/>
      <circle class="map-core-dot" r="2"/>
      <text class="map-label" x="12" y="18" text-anchor="start">SG</text>
    </g>
    <g class="map-node" transform="translate(793.8 104.8)">
      <circle class="map-ring" r="7.5" style="animation-delay:1.08s"/>
      <circle class="map-ring map-ring--late" r="7.5" style="animation-delay:2.38s"/>
      <circle class="map-core" r="5"/>
      <circle class="map-core-dot" r="2"/>
      <text class="map-label" x="12" y="-8" text-anchor="start">JP</text>
    </g>
    <g class="map-node" transform="translate(795.8 215.3)">
      <circle class="map-ring" r="7.5" style="animation-delay:1.26s"/>
      <circle class="map-ring map-ring--late" r="7.5" style="animation-delay:2.56s"/>
      <circle class="map-core" r="5"/>
      <circle class="map-core-dot" r="2"/>
      <text class="map-label" x="12" y="18" text-anchor="start">AU</text>
    </g>
  </g>
</svg>